<svg xmlns="http://www.w3.org/2000/svg" width="1em" height="1em" viewBox="0 0 16 16">
  <path fill="#666666" d="M10 0H2v16h12V4l-4-4zM9 5h4v10H3V1h6v4zm1-1V1l3 3h-3z" />
  <path fill="#666666" d="M12.515 6.146V5.87a.056.056 0 0 0-.057-.056H3.542a.056.056 0 0 0-.057.056v8.119h1.129v-.02h7.844a.056.056 0 0 0 .057-.057v-.275a.056.056 0 0 0-.057-.056H4.67a.056.056 0 0 1-.056-.057v-1.44a.056.056 0 0 1 .056-.057h7.788a.056.056 0 0 0 .057-.056v-.276a.056.056 0 0 0-.057-.056H4.67a.056.056 0 0 1-.056-.057v-1.44a.056.056 0 0 1 .056-.056h7.788a.056.056 0 0 0 .057-.057v-.275a.056.056 0 0 0-.057-.057H4.67a.056.056 0 0 1-.056-.056V8.2a.056.056 0 0 1 .056-.057h7.788a.056.056 0 0 0 .057-.057v-.275a.056.056 0 0 0-.057-.056H4.67a.056.056 0 0 1-.056-.057V6.26a.056.056 0 0 1 .056-.057h7.788a.056.056 0 0 0 .057-.056z" />
  <path fill="#666666" d="M9.713 10.073a1.178 1.178 0 0 0-.745-.429 1.192 1.192 0 0 0-.239-.013l-.11-.823c.249-.227.41-.385.49-.483.432-.524.469-.972.504-1.404l.004-.054a2.61 2.61 0 0 0-.06-.774c-.05-.214-.152-.513-.35-.718a.213.213 0 0 0-.117-.06.267.267 0 0 0-.05-.005c-.16 0-.403.127-.56.405-.417.74-.426 1.363-.297 2.255l.016.118-.021.018c-.61.504-1.443 1.195-1.523 2.19-.04.497.133 1.039.451 1.414.331.39.836.659 1.287.685.129.008.255.003.376-.014l.098.733c.052.362.001.634-.15.809a.644.644 0 0 1-.49.204.835.835 0 0 1-.147-.013.048.048 0 0 1-.04-.043.048.048 0 0 1 .027-.052.497.497 0 0 0 .285-.45.643.643 0 0 0-.167-.485.567.567 0 0 0-.41-.179.582.582 0 0 0-.382.148c-.218.188-.288.522-.173.831.11.293.412.607.936.607a1.429 1.429 0 0 0 .178-.012 1.02 1.02 0 0 0 .698-.375c.173-.227.233-.532.178-.905l-.12-.896c.535-.19.882-.648.91-1.21.021-.406-.078-.759-.287-1.02zM7.46 11.639c-.445-.518-.307-1.077-.185-1.363.158-.374.455-.683.852-1.031l.014-.012c.055-.05.12-.106.188-.166l.083.626a1.195 1.195 0 0 0-.612.5 1.18 1.18 0 0 0-.174.804c.081.492.42.752.698.786a.184.184 0 0 0 .023.001.123.123 0 0 0 .118-.078.11.11 0 0 0 0-.086c-.015-.036-.048-.065-.101-.087a.472.472 0 0 1-.15-.108c-.238-.245-.142-.585-.02-.755a.613.613 0 0 1 .317-.23l.214 1.612c-.11.019-.233.027-.367.025-.307-.003-.676-.184-.898-.438zm2.01-.435c-.006.363-.15.615-.428.75l-.207-1.534c.329.055.642.33.635.784zM8.575 6.86c.11-.32.316-.663.513-.663l.02.001c.053.006.09.03.116.073.073.121.049.386-.06.658l-.001.002c-.074.185-.144.36-.478.722-.05.055-.114.116-.197.19a1.82 1.82 0 0 1 .087-.983z" />
</svg>